# xmcd
#
# Track frame offsets: 
#        182
#        17387
#        34362
#        51977
#        70675
#        92125
#        115582
#        133432
#        151660
#        170487
#        186270
#        205080
#        223935
#        240132
#
# Disc length: 3456 seconds
#
# Revision: 4
# Processed by: cddbd v1.5.2PL0 Copyright (c) Steve Scherf et al.
# Submitted via: ExactAudioCopy v1.1
#
DISCID=bd0d7e0e
DTITLE=Nino Buonocore - Un Pò Di Più
DYEAR=1993
DGENRE=Pop
TTITLE0=Una canzone d'amore
TTITLE1=Boulevard
TTITLE2=Il mandorlo
TTITLE3=Non piangere
TTITLE4=Un pò di più
TTITLE5=Io mi inventerò
TTITLE6=Scrivimi
TTITLE7=Rosanna
TTITLE8=Vorrei darti di più
TTITLE9=Con l'acqua alla gola
TTITLE10=Abitudini
TTITLE11=Soli
TTITLE12=La terra dei diamanti
TTITLE13=Dopo l'amore
EXTD=0\n\n\n
EXTT0=
EXTT1=
EXTT2=
EXTT3=
EXTT4=
EXTT5=
EXTT6=
EXTT7=
EXTT8=
EXTT9=
EXTT10=
EXTT11=
EXTT12=
EXTT13=
PLAYORDER=
